<?xml version="1.0" encoding="utf-8"?>
<!-- Generator: Adobe Illustrator 21.0.2, SVG Export Plug-In . SVG Version: 6.00 Build 0)  -->
<svg version="1.1" id="Слой_1" xmlns="http://www.w3.org/2000/svg" xmlns:xlink="http://www.w3.org/1999/xlink" x="0px" y="0px"
	 viewBox="0 0 256 256" style="enable-background:new 0 0 256 256;" xml:space="preserve">
<style type="text/css">
	.st0{fill:#E5E1DF;}
	.st1{fill:#A88451;}
	.st2{fill:#CE9557;}
	.st3{fill:#C97B2D;}
</style>
<path class="st0" d="M72.1,22.8c0,0,2.5-1.9,2.6-1.9s1.3,0.2,1.3,0.2s-1.2,2.1-1.3,2.3C74.5,23.7,72.1,23.3,72.1,22.8z"/>
<path class="st0" d="M75.1,21c0.4-1.2,2.4-2.3,2.2,2.3l-0.1,7.8h-0.4l0.1-7.8c-0.1-5-1.6-2.2-1.6-2.2L75.1,21z"/>
<polygon class="st0" points="76.3,32.5 77.2,32.9 77.9,32.5 77.7,31.1 76.5,31.1 "/>
<path class="st1" d="M76,32.9l-0.2-1.1c-0.1-0.5-0.1-1-0.1-1.4l-0.1-1.9l-0.1,1.5c0,0.2,0,0.3-0.1,0.5l-0.2,0.9l-0.5,0
	c-0.5,0-0.9,0.5-0.9,1.1l0.1,0.8l0.1,0l0.2-0.4c0.3-0.5,1-0.6,1.4-0.2l0.2,0.3H76z"/>
<path class="st1" d="M71.7,32.2l-0.2-1.1c-0.1-0.5-0.1-1-0.1-1.4L71.2,28l-0.1,1.3c0,0.2,0,0.3-0.1,0.5l-0.2,0.9l-0.5,0
	c-0.5,0-0.9,0.5-0.9,1.1l0.1,0.8l0.1,0l0.2-0.4c0.3-0.5,1-0.6,1.4-0.2l0.2,0.3H71.7z"/>
<path class="st2" d="M71.3,28l4.4,0.4l-0.1,1.5l-0.1,0.5l-0.2,0.9l-4.4-0.7l0.1-0.8c0-0.3,0.1-0.5,0.1-0.9L71.3,28z"/>
<polygon class="st3" points="75.3,31.3 74.7,31.4 74.6,31.4 74.5,31.5 74.3,31.5 74.2,31.6 74.1,31.8 74,31.9 74,32 73.9,32.2 
	73.9,32.3 69.6,31.5 69.6,31.4 69.6,31.2 69.7,31.1 69.8,31 69.9,30.9 69.9,30.9 70,30.8 70.1,30.8 70.2,30.7 70.4,30.7 70.6,30.7 
	70.9,30.7 "/>
</svg>
