<?xml version="1.0" encoding="utf-8"?>
<!-- Generator: Adobe Illustrator 21.0.2, SVG Export Plug-In . SVG Version: 6.00 Build 0)  -->
<svg version="1.1" id="Слой_1" xmlns="http://www.w3.org/2000/svg" xmlns:xlink="http://www.w3.org/1999/xlink" x="0px" y="0px"
	 viewBox="0 0 256 256" style="enable-background:new 0 0 256 256;" xml:space="preserve">
<style type="text/css">
	.st0{fill:none;stroke:#000000;stroke-width:10;stroke-linecap:round;stroke-linejoin:round;stroke-miterlimit:10;}
</style>
<line class="st0" x1="65.9" y1="206.7" x2="65.9" y2="92"/>
<line class="st0" x1="177.9" y1="206.7" x2="177.9" y2="92"/>
<line class="st0" x1="65.9" y1="92" x2="177.9" y2="92"/>
<line class="st0" x1="177.9" y1="206.7" x2="65.9" y2="206.7"/>
<rect x="85.4" y="169.3" class="st0" width="20.3" height="20.3"/>
<rect x="138.2" y="169.3" class="st0" width="20.3" height="20.3"/>
<polygon class="st0" points="121.9,39.7 55.9,92 187.9,92 "/>
<path class="st0" d="M102.7,135.4c0,9.9,9.5,17.9,21.2,17.9"/>
<path class="st0" d="M143.3,135.4c0,9.9-4.8,17.9-19.4,17.9"/>
<path class="st0" d="M102.7,135.4c0-16.1,12.8-21.7,21.2-29.2"/>
<path class="st0" d="M123.9,106.3c0,14.3,2.5,21.2,5.1,25.7"/>
<path class="st0" d="M143.3,135.4c0.4-4.2-1.7-9.7-3.3-12.5"/>
<path class="st0" d="M129,132c6.8-3,9.3-4.5,11-9"/>
</svg>
