<?xml version="1.0" encoding="utf-8"?>
<!-- Generator: Adobe Illustrator 21.0.2, SVG Export Plug-In . SVG Version: 6.00 Build 0)  -->
<svg version="1.1" id="Слой_1" xmlns="http://www.w3.org/2000/svg" xmlns:xlink="http://www.w3.org/1999/xlink" x="0px" y="0px"
	 viewBox="0 0 256 256" style="enable-background:new 0 0 256 256;" xml:space="preserve">
<style type="text/css">
	.st0{fill:none;stroke:#000000;stroke-width:10;stroke-linecap:round;stroke-linejoin:round;stroke-miterlimit:10;}
</style>
<line class="st0" x1="65.9" y1="206.7" x2="65.9" y2="92"/>
<line class="st0" x1="177.9" y1="206.7" x2="177.9" y2="92"/>
<line class="st0" x1="65.9" y1="92" x2="177.9" y2="92"/>
<line class="st0" x1="177.9" y1="206.7" x2="65.9" y2="206.7"/>
<rect x="85.4" y="169.3" class="st0" width="20.3" height="20.3"/>
<rect x="138.2" y="169.3" class="st0" width="20.3" height="20.3"/>
<polygon class="st0" points="121.9,39.7 55.9,92 187.9,92 "/>
<path class="st0" d="M124.2,157.5h-15.7c-6.6,0-12-5.4-12-12v-29c0-6.6,5.4-12,12-12h15.7c6.6,0,12,5.4,12,12v29
	C136.2,152.1,130.8,157.5,124.2,157.5z"/>
<path class="st0" d="M124.6,104.5h15.6c6.6,0,12,5.4,12,12v29c0,6.6-5.4,12-12,12h-15.6"/>
<line class="st0" x1="107.7" y1="120.7" x2="124.6" y2="120.7"/>
<line class="st0" x1="116.4" y1="133.3" x2="124.6" y2="133.3"/>
<line class="st0" x1="107.7" y1="145" x2="116.1" y2="145"/>
</svg>
