<?xml version="1.0" encoding="utf-8"?>
<!-- Generator: Adobe Illustrator 21.0.2, SVG Export Plug-In . SVG Version: 6.00 Build 0)  -->
<svg version="1.1" id="Слой_1" xmlns="http://www.w3.org/2000/svg" xmlns:xlink="http://www.w3.org/1999/xlink" x="0px" y="0px"
	 viewBox="0 0 256 256" style="enable-background:new 0 0 256 256;" xml:space="preserve">
<style type="text/css">
	.st0{fill:none;stroke:#000000;stroke-width:10;stroke-linecap:round;stroke-linejoin:round;stroke-miterlimit:10;}
</style>
<line class="st0" x1="65.9" y1="206.7" x2="65.9" y2="92"/>
<line class="st0" x1="177.9" y1="206.7" x2="177.9" y2="92"/>
<line class="st0" x1="65.9" y1="92" x2="177.9" y2="92"/>
<line class="st0" x1="177.9" y1="206.7" x2="65.9" y2="206.7"/>
<rect x="85.4" y="169.3" class="st0" width="20.3" height="20.3"/>
<rect x="138.2" y="169.3" class="st0" width="20.3" height="20.3"/>
<polygon class="st0" points="121.9,39.7 65.9,92 177.9,92 "/>
<path class="st0" d="M121.9,109c0,4.9-6,8.9-13.4,8.9"/>
<path class="st0" d="M93.5,109.5c0,6.3,7.8,8.4,15,8.4"/>
<path class="st0" d="M93.5,109.5c0,22,12.7,45.8,28.4,45.8"/>
<path class="st0" d="M121.9,109c0,4.9,6,8.9,13.4,8.9"/>
<path class="st0" d="M150.3,109.5c0,6.3-7.8,8.4-15,8.4"/>
<path class="st0" d="M150.3,109.5c0,22-12.7,45.8-28.4,45.8"/>
</svg>
