<?xml version="1.0" encoding="utf-8"?>
<!-- Generator: Adobe Illustrator 21.0.2, SVG Export Plug-In . SVG Version: 6.00 Build 0)  -->
<svg version="1.1" id="Слой_1" xmlns="http://www.w3.org/2000/svg" xmlns:xlink="http://www.w3.org/1999/xlink" x="0px" y="0px"
	 viewBox="0 0 256 256" style="enable-background:new 0 0 256 256;" xml:space="preserve">
<style type="text/css">
	.st0{fill:none;stroke:#000000;stroke-width:10;stroke-linecap:round;stroke-linejoin:round;stroke-miterlimit:10;}
</style>
<line class="st0" x1="145.9" y1="206.7" x2="145.9" y2="81"/>
<line class="st0" x1="172.9" y1="206.7" x2="172.9" y2="81"/>
<line class="st0" x1="47.9" y1="81" x2="172.9" y2="81"/>
<line class="st0" x1="172.9" y1="206.7" x2="145.9" y2="206.7"/>
<line class="st0" x1="172.9" y1="81" x2="172.9" y2="48.7"/>
<line class="st0" x1="145.9" y1="81" x2="149.9" y2="48.7"/>
<line class="st0" x1="172.9" y1="48.7" x2="149.9" y2="48.7"/>
<line class="st0" x1="172.9" y1="80.7" x2="201" y2="80.7"/>
<line class="st0" x1="223" y1="95" x2="223" y2="57.7"/>
<line class="st0" x1="200.3" y1="57.7" x2="223" y2="57.7"/>
<line class="st0" x1="200.3" y1="80.7" x2="200.3" y2="57.7"/>
<line class="st0" x1="223" y1="95" x2="200.3" y2="80.7"/>
<line class="st0" x1="145.9" y1="63" x2="58.7" y2="63"/>
<line class="st0" x1="58.7" y1="63" x2="47.9" y2="81"/>
<line class="st0" x1="61" y1="81" x2="61" y2="143.9"/>
<line class="st0" x1="172.9" y1="63" x2="200.3" y2="63"/>
</svg>
