<?xml version="1.0" encoding="utf-8"?>
<!-- Generator: Adobe Illustrator 21.0.2, SVG Export Plug-In . SVG Version: 6.00 Build 0)  -->
<svg version="1.1" id="Слой_2" xmlns="http://www.w3.org/2000/svg" xmlns:xlink="http://www.w3.org/1999/xlink" x="0px" y="0px"
	 viewBox="0 0 256 256" style="enable-background:new 0 0 256 256;" xml:space="preserve">
<style type="text/css">
	.st0{fill:none;stroke:#000000;stroke-width:10;stroke-linecap:round;stroke-linejoin:round;stroke-miterlimit:10;}
</style>
<path class="st0" d="M120.2,60l18.6,33.2l-15.3,8.7l41.9-2.2l18.9-35.3l-13.8,8l-5.5-9.4c-3.4-5.6-6.7-14.1-15.6-14.7L107,48
	l-7.5-0.1c-7.2,0-11.9,2.7-17.6,12.3L66.6,87.7l36.1,20l20.8-38.6"/>
<path class="st0" d="M188.4,160.4l-37.5,0.5l0.3-17.6l-19.5,37.2l20.8,34.3l0.2-16l10.9,0.1c6.6-0.1,15.6,1.4,20.6-5.9l21.8-36.3
	l3.9-6.4c3.7-6.2,3.8-11.6-1.6-21.4l-15.9-27.2l-35.6,20.8l22.6,37.6"/>
<path class="st0" d="M64.5,170.8l19.6-31.5l14.5,10l-20.2-36.8l-40.1-1.6l13.3,9l-6.1,9c-3.6,5.5-9.8,12.2-6.4,20.5l18.2,38.2
	l3.2,6.8c3.1,6.5,7.6,9.6,18.8,10.5l31.4,1.8l2.3-41.2l-43.8-1.9"/>
</svg>
