<?xml version="1.0" encoding="utf-8"?>
<!-- Generator: Adobe Illustrator 21.0.2, SVG Export Plug-In . SVG Version: 6.00 Build 0)  -->
<svg version="1.1" id="Слой_1" xmlns="http://www.w3.org/2000/svg" xmlns:xlink="http://www.w3.org/1999/xlink" x="0px" y="0px"
	 viewBox="0 0 256 256" style="enable-background:new 0 0 256 256;" xml:space="preserve">
<style type="text/css">
	.st0{fill:#FFFFFF;stroke:#000000;stroke-width:10;stroke-linecap:round;stroke-linejoin:round;stroke-miterlimit:10;}
	.st1{fill:none;stroke:#000000;stroke-width:10;stroke-linecap:round;stroke-linejoin:round;stroke-miterlimit:10;}
</style>
<path class="st0" d="M181.7,214.5H74.3c-5.2,0-9.4-4.2-9.4-9.4V51c0-5.2,4.2-9.4,9.4-9.4h107.5c5.2,0,9.4,4.2,9.4,9.4V205
	C191.2,210.3,186.9,214.5,181.7,214.5z"/>
<line class="st1" x1="81.2" y1="66.7" x2="147" y2="66.7"/>
<line class="st1" x1="81.2" y1="85.9" x2="174.5" y2="85.9"/>
<path class="st1" d="M79.2,85.9"/>
<line class="st1" x1="79.2" y1="105.1" x2="174.8" y2="105.1"/>
<line class="st1" x1="79.2" y1="124.3" x2="174.8" y2="124.3"/>
<path class="st1" d="M173.1,143.5"/>
<line class="st1" x1="79.2" y1="143.5" x2="174.5" y2="143.5"/>
<path class="st1" d="M172.8,162.8"/>
<path class="st1" d="M90.9,162.8"/>
<path class="st1" d="M172.8,182"/>
<path class="st1" d="M90.9,182"/>
<line class="st1" x1="130.2" y1="195.2" x2="171.1" y2="195.2"/>
<path class="st1" d="M86.5,105.1"/>
<path class="st1" d="M111.7,105.1"/>
<path class="st1" d="M133.4,143.5"/>
<path class="st1" d="M92.9,143.5"/>
</svg>
