<?xml version="1.0" encoding="utf-8"?>
<!-- Generator: Adobe Illustrator 21.0.2, SVG Export Plug-In . SVG Version: 6.00 Build 0)  -->
<svg version="1.1" id="Слой_1" xmlns="http://www.w3.org/2000/svg" xmlns:xlink="http://www.w3.org/1999/xlink" x="0px" y="0px"
	 viewBox="0 0 256 256" style="enable-background:new 0 0 256 256;" xml:space="preserve">
<style type="text/css">
	.st0{fill:none;stroke:#000000;stroke-width:10;stroke-linecap:round;stroke-linejoin:round;stroke-miterlimit:10;}
</style>
<circle class="st0" cx="129.9" cy="174.5" r="19.2"/>
<circle class="st0" cx="203.5" cy="174.5" r="19.2"/>
<path class="st0" d="M70.8,166.2v-28.5c15.6,0,28.5,12.9,28.5,28.5s-12.9,28.5-28.5,28.5V166.2z"/>
<line class="st0" x1="160.3" y1="174.5" x2="173" y2="174.5"/>
<line class="st0" x1="234.4" y1="174.5" x2="242.7" y2="174.5"/>
<path class="st0" d="M173,174.5c0-16.9,13.6-30.6,30.5-30.6"/>
<path class="st0" d="M234.4,174.5c0-16.9-13.9-30.6-31-30.6"/>
<path class="st0" d="M160.3,174.5c0-16.9-13.6-30.6-30.5-30.6"/>
<path class="st0" d="M99.3,168.5c0-16.9,14.2-24.6,30.5-24.6"/>
<path class="st0" d="M129.9,143.9"/>
<line class="st0" x1="203.5" y1="143.9" x2="129.9" y2="143.9"/>
<line class="st0" x1="200.2" y1="143.9" x2="189" y2="74.9"/>
<line class="st0" x1="189" y1="74.9" x2="155.1" y2="74.9"/>
<line class="st0" x1="155.1" y1="74.9" x2="145.9" y2="143.9"/>
</svg>
