# Blender v2.80 (sub 45) OBJ File: 'bed.blend'
# www.blender.org
mtllib bed.mtl
o Cube
v 0.500000 0.500000 -0.500000
v 0.500000 0.000000 -0.499998
v 0.500000 0.500000 1.500000
v 0.500000 0.000000 1.500000
v 0.424646 0.489753 1.450169
v 0.424646 0.529932 1.440253
v -0.441909 0.489753 1.450169
v -0.441909 0.529932 1.440253
v 0.424646 0.486998 0.791817
v -0.441910 0.486998 0.791817
v -0.469064 0.489753 1.363464
v -0.441909 0.566899 1.363464
v 0.452268 0.489753 1.363464
v 0.424646 0.566899 1.363464
v -0.441909 0.576595 1.191165
v 0.452268 0.489753 1.191165
v -0.469064 0.489753 1.191165
v 0.424646 0.576595 1.191165
v -0.441910 0.551767 0.991491
v 0.452268 0.489753 0.991491
v -0.469064 0.489753 0.991491
v 0.424646 0.551767 0.991491
v 0.242796 0.489753 1.464603
v 0.242796 0.548865 1.454687
v 0.242796 0.505931 0.784982
v 0.242796 0.585832 1.363464
v 0.242796 0.595528 1.191165
v 0.242796 0.570700 0.991491
v -0.247710 0.548865 1.454687
v -0.247710 0.489753 1.464603
v -0.247710 0.505931 0.784982
v -0.247710 0.585832 1.363464
v -0.247710 0.595528 1.191165
v -0.247710 0.570700 0.991491
v -0.002457 0.489753 1.478070
v -0.002457 0.518378 0.770292
v -0.002457 0.598279 1.363464
v -0.002457 0.607975 1.191165
v -0.500000 0.500000 -0.500000
v -0.002457 0.583147 0.991491
v -0.500000 0.000000 -0.499998
v -0.002457 0.561312 1.468153
v -0.002457 0.489753 0.770292
v -0.500000 0.500000 1.500000
v -0.500000 0.000000 1.500000
v -0.250000 0.000000 1.500000
v 0.250000 0.000000 1.500000
v 0.500000 0.000000 1.250002
v 0.500000 0.000000 -0.249998
v 0.250000 0.000000 -0.499998
v -0.250000 0.000000 -0.499998
v -0.500000 0.000000 -0.249998
v -0.500000 0.000000 1.250002
v -0.500000 0.250000 1.250002
v -0.500000 0.250000 -0.249998
v -0.250000 0.250000 -0.499998
v 0.250000 0.250000 -0.499998
v -0.250000 0.250000 -0.249998
v 0.250000 0.250000 -0.249998
v 0.250000 0.250000 1.250004
v 0.500000 0.250000 -0.249998
v 0.500000 0.250000 1.250002
v 0.250000 0.250000 1.500000
v -0.250000 0.250000 1.500000
v -0.250000 0.000000 -0.249998
v -0.250000 0.000000 1.250002
v 0.250000 0.000000 -0.249998
v 0.250000 0.000000 1.250002
v -0.250000 0.250000 1.250002
v 0.278587 0.500000 1.277780
v -0.385661 0.500000 0.833336
vt 0.056641 0.003906
vt 0.056641 0.005859
vt 0.007812 0.009766
vt 0.007812 0.007812
vt 0.000000 0.121094
vt 0.007812 0.121094
vt 0.007812 0.171875
vt 0.230469 0.029297
vt 0.224609 0.029297
vt 0.224609 0.009766
vt 0.224609 0.007812
vt 0.177734 0.029297
vt 0.177734 0.005859
vt 0.177734 0.072266
vt 0.224609 0.072266
vt 0.230469 0.072266
vt 0.007812 0.029297
vt 0.000000 0.029297
vt 0.230469 0.121094
vt 0.224609 0.121094
vt 0.177734 0.121094
vt 0.007812 0.072266
vt 0.000000 0.072266
vt 0.177734 0.173828
vt 0.224609 0.171875
vt 0.117188 0.177734
vt 0.117188 0.121094
vt 0.117188 0.072266
vt 0.117188 0.029297
vt 0.117188 0.001953
vt 0.056641 0.173828
vt 0.117188 0.177734
vt 0.177734 0.003906
vt 0.056641 0.029297
vt 0.056641 0.072266
vt 0.056641 0.121094
vt 0.117188 0.000000
vt 0.000000 0.750000
vt 0.500000 0.750000
vt 0.500000 1.000000
vt 0.000000 1.000000
vt 0.562500 0.625000
vt 0.500000 0.625000
vt 0.500000 0.562500
vt 0.562500 0.562500
vt 0.375000 0.500000
vt 0.437500 0.500000
vt 0.437500 0.562500
vt 0.375000 0.562500
vt 0.312500 0.500000
vt 0.375000 0.500000
vt 0.375000 0.562500
vt 0.312500 0.562500
vt 0.562500 0.562500
vt 0.625000 0.562500
vt 0.625000 0.625000
vt 0.562500 0.625000
vt 0.625000 0.562500
vt 0.562500 0.562500
vt 0.562500 0.500000
vt 0.625000 0.500000
vt 0.250000 0.437500
vt 0.250000 0.500000
vt 0.187500 0.500000
vt 0.187500 0.437500
vt 0.562500 0.500000
vt 0.562500 0.562500
vt 0.500000 0.562500
vt 0.500000 0.500000
vt 0.125000 0.562500
vt 0.062500 0.562500
vt 0.062500 0.500000
vt 0.125000 0.500000
vt 0.500000 0.812500
vt 0.562500 0.812500
vt 0.562500 0.937500
vt 0.500000 0.937500
vt 0.562500 0.750000
vt 0.937500 0.750000
vt 0.937500 0.812500
vt 1.000000 0.937500
vt 0.937500 0.937500
vt 1.000000 0.812500
vt 0.500000 0.500000
vt 0.437500 0.500000
vt 0.437500 0.437500
vt 0.500000 0.437500
vt 0.312500 0.437500
vt 0.312500 0.500000
vt 0.250000 0.500000
vt 0.250000 0.437500
vt 0.125000 0.562500
vt 0.125000 0.500000
vt 0.187500 0.500000
vt 0.187500 0.562500
vt 0.062500 0.437500
vt 0.062500 0.500000
vt 0.000000 0.500000
vt 0.000000 0.437500
vt 0.000000 0.500000
vt 0.062500 0.500000
vt 0.062500 0.562500
vt 0.000000 0.625000
vt 0.187500 0.562500
vt 0.250000 0.625000
vt 0.500000 0.500000
vt 0.500000 0.625000
vt 0.437500 0.562500
vt 0.437500 0.500000
vt 0.312500 0.562500
vt 0.250000 0.625000
vt 0.500000 0.625000
vt 0.500000 0.750000
vt 0.437500 0.687500
vt 0.437500 0.625000
vt 0.000000 0.625000
vt 0.062500 0.625000
vt 0.062500 0.687500
vt 0.000000 0.750000
vt 1.000000 0.625000
vt 1.000000 0.750000
vt 0.937500 0.687500
vt 0.937500 0.625000
vt 0.500000 0.625000
vt 0.562500 0.625000
vt 0.562500 0.687500
vt 0.500000 0.750000
vt 0.562500 1.000000
vt 0.937500 1.000000
vt 0.250000 0.500000
vt 0.187500 0.500000
vn -0.0822 0.1952 0.9773
vn -0.9084 0.3977 -0.1290
vn 0.9466 0.2410 0.2144
vn 0.1106 0.9097 0.4003
vn 0.1034 0.9931 0.0559
vn 0.9476 0.3192 0.0090
vn -0.9482 0.2373 0.2111
vn 0.9373 0.3478 -0.0216
vn 0.1028 0.9871 -0.1227
vn -0.9493 0.3144 0.0088
vn 0.1043 0.9475 -0.3022
vn 0.9056 0.4034 -0.1308
vn -0.9392 0.3427 -0.0213
vn 0.0572 0.9555 -0.2894
vn 0.0503 0.9911 -0.1232
vn 0.0506 0.9971 0.0561
vn 0.0571 0.9341 0.3525
vn -0.0544 0.0791 -0.9954
vn 0.0877 0.1951 0.9769
vn -0.1036 0.9104 0.4006
vn -0.0969 0.9937 0.0559
vn -0.0963 0.9877 -0.1228
vn -0.0978 0.9482 -0.3024
vn -0.0580 0.1498 0.9870
vn 0.0580 0.1498 0.9870
vn -0.0571 0.9341 0.3525
vn -0.0506 0.9971 0.0561
vn -0.0503 0.9911 -0.1232
vn -0.0572 0.9555 -0.2894
vn 0.0552 0.0679 -0.9962
vn 0.0000 1.0000 0.0000
vn 0.0000 0.0000 1.0000
vn 1.0000 -0.0000 -0.0000
vn -1.0000 -0.0000 -0.0000
vn -0.0000 0.0000 -1.0000
vn 0.0000 -1.0000 -0.0000
usemtl Material
s off
f 30/1/1 29/2/1 8/3/1 7/4/1
f 21/5/2 19/6/2 10/7/2
f 13/8/3 14/9/3 6/10/3 5/11/3
f 26/12/4 24/13/4 6/10/4 14/9/4
f 27/14/5 26/12/5 14/9/5 18/15/5
f 16/16/6 18/15/6 14/9/6 13/8/6
f 7/4/7 8/3/7 12/17/7 11/18/7
f 20/19/8 22/20/8 18/15/8 16/16/8
f 28/21/9 27/14/9 18/15/9 22/20/9
f 11/18/10 12/17/10 15/22/10 17/23/10
f 25/24/11 28/21/11 22/20/11 9/25/11
f 9/25/12 22/20/12 20/19/12
f 17/23/13 15/22/13 19/6/13 21/5/13
f 36/26/14 40/27/14 28/21/14 25/24/14
f 40/27/15 38/28/15 27/14/15 28/21/15
f 38/28/16 37/29/16 26/12/16 27/14/16
f 37/29/17 42/30/17 24/13/17 26/12/17
f 31/31/18 36/26/18 43/32/18 10/7/18
f 5/11/19 6/10/19 24/13/19 23/33/19
f 12/17/20 8/3/20 29/2/20 32/34/20
f 15/22/21 12/17/21 32/34/21 33/35/21
f 19/6/22 15/22/22 33/35/22 34/36/22
f 10/7/23 19/6/23 34/36/23 31/31/23
f 35/37/24 42/30/24 29/2/24 30/1/24
f 23/33/25 24/13/25 42/30/25 35/37/25
f 32/34/26 29/2/26 42/30/26 37/29/26
f 33/35/27 32/34/27 37/29/27 38/28/27
f 34/36/28 33/35/28 38/28/28 40/27/28
f 31/31/29 34/36/29 40/27/29 36/26/29
f 9/25/30 43/32/30 36/26/30 25/24/30
f 3/38/31 1/39/31 39/40/31 44/41/31
f 65/42/32 58/43/32 55/44/32 52/45/32
f 58/46/33 65/47/33 51/48/33 56/49/33
f 59/50/34 57/51/34 50/52/34 67/53/34
f 48/54/35 68/55/35 60/56/35 62/57/35
f 49/58/32 61/59/32 59/60/32 67/61/32
f 47/62/34 63/63/34 60/64/34 68/65/34
f 66/66/35 53/67/35 54/68/35 69/69/35
f 46/70/33 66/71/33 69/72/33 64/73/33
f 64/74/36 69/75/36 60/76/36 63/77/36
f 69/75/36 54/78/36 55/79/36 58/80/36
f 57/81/36 59/82/36 58/80/36 56/83/36
f 52/84/36 41/85/36 51/86/36 65/87/36
f 67/88/36 50/89/36 2/90/36 49/91/36
f 68/92/36 48/93/36 4/94/36 47/95/36
f 46/96/36 45/97/36 53/98/36 66/99/36
f 45/100/32 46/101/32 64/102/32 44/103/32
f 64/102/32 63/104/32 3/105/32 44/103/32
f 41/106/35 39/107/35 56/108/35 51/109/35
f 2/90/35 50/89/35 57/110/35 1/111/35
f 60/76/36 69/75/36 58/80/36 59/82/36
f 57/110/35 56/108/35 39/107/35 1/111/35
f 45/112/34 44/113/34 54/114/34 53/115/34
f 41/116/34 52/117/34 55/118/34 39/119/34
f 44/113/34 39/119/34 55/118/34 54/114/34
f 2/120/33 1/121/33 61/122/33 49/123/33
f 4/124/33 48/125/33 62/126/33 3/127/33
f 62/128/36 60/76/36 59/82/36 61/129/36
f 62/126/33 61/122/33 1/121/33 3/127/33
f 4/130/32 3/105/32 63/104/32 47/131/32
