# Blender v2.80 (sub 44) OBJ File: 'bed.blend'
# www.blender.org
mtllib bed.mtl
o Cube
v -0.500000 0.520657 -0.500000
v -0.500000 0.000000 -0.500000
v 0.500000 0.520657 -0.500000
v 0.500000 0.000000 -0.500000
v 0.500000 0.000000 1.500000
v 0.500000 0.520657 1.500000
v -0.500000 0.000000 1.500000
v -0.500000 0.520657 1.500000
v -0.500000 0.000000 1.273631
v 0.500000 0.000000 1.273631
v -0.500000 0.000000 -0.261849
v 0.500000 0.000000 -0.261849
v 0.333333 0.000000 -0.500000
v 0.333333 0.000000 1.500000
v 0.333333 0.000000 1.273631
v 0.333333 0.000000 -0.261849
v -0.348915 0.000000 -0.500000
v -0.348915 0.000000 1.273631
v -0.348915 0.000000 -0.261849
v -0.348915 0.000000 1.500000
v 0.500000 0.220250 1.273631
v -0.500000 0.220250 1.273631
v -0.500000 0.220250 -0.261849
v 0.500000 0.220250 -0.261849
v 0.333333 0.220250 1.500000
v 0.333333 0.220250 -0.500000
v -0.348915 0.220250 -0.500000
v -0.348915 0.220250 1.500000
v 0.422829 0.506784 1.450167
v 0.422829 0.546964 1.440250
v -0.443727 0.506784 1.450167
v -0.443727 0.546964 1.440250
v 0.422829 0.504030 0.791815
v -0.443727 0.504030 0.791815
v -0.470881 0.506784 1.363462
v -0.443727 0.583931 1.363462
v 0.450451 0.506784 1.363462
v 0.422829 0.583931 1.363462
v -0.443727 0.593627 1.191163
v 0.450451 0.506784 1.191163
v -0.470881 0.506784 1.191163
v 0.422829 0.593627 1.191163
v -0.443727 0.568799 0.991489
v 0.450451 0.506784 0.991489
v -0.470881 0.506784 0.991489
v 0.422829 0.568799 0.991489
v 0.240979 0.506784 1.464601
v 0.240979 0.565897 1.454684
v 0.240979 0.522963 0.784979
v 0.240979 0.602863 1.363462
v 0.240979 0.612559 1.191163
v 0.240979 0.587731 0.991489
v -0.249527 0.565897 1.454684
v -0.249527 0.506784 1.464601
v -0.249527 0.522963 0.784979
v -0.249527 0.602863 1.363462
v -0.249527 0.612559 1.191163
v -0.249527 0.587731 0.991489
v -0.004274 0.506784 1.478068
v -0.004274 0.535410 0.770290
v -0.004274 0.615311 1.363462
v -0.004274 0.625007 1.191163
v 0.333333 0.220250 -0.261849
v -0.004274 0.600179 0.991489
v -0.348916 0.220250 -0.261849
v -0.004274 0.578344 1.468151
v -0.004274 0.506784 0.770290
v -0.348915 0.220250 1.273631
v 0.333334 0.220250 1.273631
vt 0.000000 0.000000
vt 0.170055 0.128830
vt 0.340111 0.257661
vt 0.340111 0.284889
vt 0.375000 0.212229
vt 0.375000 0.250000
vt 0.125000 0.537771
vt 0.154769 0.499007
vt 0.154769 0.470231
vt 0.125000 0.500000
vt 0.125000 0.750000
vt 0.154769 0.660694
vt 0.154769 0.628950
vt 0.125000 0.708333
vt 0.000000 0.000000
vt 0.000000 0.000000
vt 0.000000 0.000000
vt 0.000000 0.000000
vt 0.340111 0.104668
vt 0.375000 0.000000
vt 0.375000 0.041667
vt 0.340111 0.134705
vt 0.000000 0.000000
vt 0.000000 0.000000
vt 0.231660 0.046515
vt 0.247742 0.106054
vt 0.079545 0.145916
vt 0.056874 0.114755
vt 0.031874 0.580076
vt 0.098079 0.564935
vt 0.100720 0.776389
vt 0.960326 0.122775
vt 0.886630 0.153078
vt 0.886204 0.083078
vt 0.903980 0.048919
vt 0.726038 0.163953
vt 0.724870 0.069864
vt 0.737152 0.324493
vt 0.906281 0.308746
vt 0.999911 0.298329
vt 0.089699 0.215107
vt 0.012365 0.196285
vt 0.999911 0.504990
vt 0.931965 0.500165
vt 0.755796 0.514861
vt 0.094102 0.371891
vt 0.000088 0.375934
vt 0.777634 0.723768
vt 0.961495 0.709634
vt 0.538432 0.754826
vt 0.521057 0.533614
vt 0.506172 0.342680
vt 0.493578 0.179996
vt 0.485473 0.073705
vt 0.297061 0.761666
vt 0.540682 0.783328
vt 0.732090 0.008671
vt 0.260955 0.199604
vt 0.274901 0.360421
vt 0.286169 0.551598
vt 0.479896 0.000088
vt 0.000000 0.000000
vt 0.077384 0.314475
vt 0.000000 0.000000
vt 0.000000 0.000000
vt 0.000000 0.000000
vt 0.000000 0.000000
vt 0.077384 0.249504
vt 0.170055 0.067353
vn 0.0000 0.0000 -1.0000
vn 0.0000 -1.0000 0.0000
vn 0.0000 1.0000 0.0000
vn 0.0000 0.0000 1.0000
vn -0.0822 0.1952 0.9773
vn -0.9084 0.3977 -0.1290
vn 0.9466 0.2410 0.2144
vn 0.1106 0.9097 0.4003
vn 0.1034 0.9931 0.0559
vn 0.9476 0.3192 0.0090
vn -0.9482 0.2373 0.2111
vn 0.9373 0.3478 -0.0216
vn 0.1028 0.9871 -0.1227
vn -0.9493 0.3144 0.0088
vn 0.1043 0.9475 -0.3022
vn 0.9056 0.4034 -0.1308
vn -0.9392 0.3427 -0.0213
vn 0.0572 0.9555 -0.2894
vn 0.0503 0.9911 -0.1232
vn 0.0506 0.9971 0.0561
vn 0.0571 0.9341 0.3525
vn -0.0544 0.0791 -0.9954
vn 0.0877 0.1951 0.9769
vn -0.1036 0.9104 0.4006
vn -0.0969 0.9937 0.0559
vn -0.0963 0.9877 -0.1228
vn -0.0978 0.9482 -0.3024
vn -0.0580 0.1498 0.9870
vn 0.0580 0.1498 0.9870
vn -0.0571 0.9341 0.3525
vn -0.0506 0.9971 0.0561
vn -0.0503 0.9911 -0.1232
vn -0.0572 0.9555 -0.2894
vn -1.0000 0.0000 0.0000
vn 1.0000 0.0000 0.0000
vn 0.0552 0.0679 -0.9962
usemtl Material
s off
f 22/1/1 68/2/1 18/3/1 9/4/1
f 18/3/2 20/5/2 7/6/2 9/4/2
f 17/7/2 19/8/2 11/9/2 2/10/2
f 4/11/2 12/12/2 16/13/2 13/14/2
f 3/15/3 1/16/3 8/17/3 6/18/3
f 10/19/2 5/20/2 14/21/2 15/22/2
f 14/21/4 5/20/4 6/18/4 8/17/4 7/6/4 20/5/4 28/23/4 25/24/4
f 54/25/5 53/26/5 32/27/5 31/28/5
f 45/29/6 43/30/6 34/31/6
f 37/32/7 38/33/7 30/34/7 29/35/7
f 50/36/8 48/37/8 30/34/8 38/33/8
f 51/38/9 50/36/9 38/33/9 42/39/9
f 40/40/10 42/39/10 38/33/10 37/32/10
f 31/28/11 32/27/11 36/41/11 35/42/11
f 44/43/12 46/44/12 42/39/12 40/40/12
f 52/45/13 51/38/13 42/39/13 46/44/13
f 35/42/14 36/41/14 39/46/14 41/47/14
f 49/48/15 52/45/15 46/44/15 33/49/15
f 33/49/16 46/44/16 44/43/16
f 41/47/17 39/46/17 43/30/17 45/29/17
f 60/50/18 64/51/18 52/45/18 49/48/18
f 64/51/19 62/52/19 51/38/19 52/45/19
f 62/52/20 61/53/20 50/36/20 51/38/20
f 61/53/21 66/54/21 48/37/21 50/36/21
f 55/55/22 60/50/22 67/56/22 34/31/22
f 29/35/23 30/34/23 48/37/23 47/57/23
f 36/41/24 32/27/24 53/26/24 56/58/24
f 39/46/25 36/41/25 56/58/25 57/59/25
f 43/30/26 39/46/26 57/59/26 58/60/26
f 34/31/27 43/30/27 58/60/27 55/55/27
f 59/61/28 66/54/28 53/26/28 54/25/28
f 47/57/29 48/37/29 66/54/29 59/61/29
f 56/58/30 53/26/30 66/54/30 61/53/30
f 57/59/31 56/58/31 61/53/31 62/52/31
f 58/60/32 57/59/32 62/52/32 64/51/32
f 55/55/33 58/60/33 64/51/33 60/50/33
f 12/12/4 24/62/4 63/63/4 16/13/4
f 17/7/1 2/10/1 1/16/1 3/15/1 4/11/1 13/14/1 26/64/1 27/65/1
f 13/14/34 16/13/34 63/63/34 26/64/34
f 18/3/35 68/2/35 28/23/35 20/5/35
f 9/4/34 7/6/34 8/17/34 1/16/34 2/10/34 11/9/34 23/66/34 22/1/34
f 10/19/35 21/67/35 24/62/35 12/12/35 4/11/35 3/15/35 6/18/35 5/20/35
f 11/9/4 19/8/4 65/68/4 23/66/4
f 17/7/35 27/65/35 65/68/35 19/8/35
f 10/19/1 15/22/1 69/69/1 21/67/1
f 15/22/34 14/21/34 25/24/34 69/69/34
f 33/49/36 67/56/36 60/50/36 49/48/36
f 21/67/2 69/69/2 63/63/2 24/62/2
f 27/65/2 26/64/2 63/63/2 65/68/2
f 22/1/2 23/66/2 65/68/2 68/2/2
f 25/24/2 28/23/2 68/2/2 69/69/2
f 69/69/2 68/2/2 65/68/2 63/63/2
