# Blender v2.80 (sub 44) OBJ File: 'door.blend'
# www.blender.org
mtllib door.mtl
o Cube.001
v 0.421875 1.921875 0.093750
v 0.421875 0.078125 0.093750
v -0.421875 1.921875 0.093750
v -0.421875 0.078125 0.093750
v 0.500000 2.000000 0.093750
v 0.500000 0.000000 0.093750
v -0.500000 2.000000 0.093750
v -0.500000 0.000000 0.093750
v 0.382812 1.882812 0.054688
v 0.367188 0.132812 0.070312
v -0.382812 1.882812 0.054688
v -0.367188 0.132812 0.070312
v 0.382812 0.914062 0.054688
v -0.382812 0.914062 0.054688
v -0.421875 1.921875 0.054688
v 0.421875 1.921875 0.054688
v 0.367188 0.820312 0.070312
v -0.367188 0.820312 0.070312
v -0.382812 1.882812 0.015625
v 0.382812 1.882812 0.015625
v 0.382812 0.914062 0.015625
v -0.382812 0.914062 0.015625
v 0.421875 0.875000 0.054688
v 0.421875 0.078125 0.054688
v -0.421875 0.078125 0.054688
v -0.421875 0.875000 0.054688
v 0.382812 0.835938 0.054688
v 0.382812 0.117187 0.054688
v -0.382812 0.117187 0.054688
v -0.382812 0.835938 0.054688
v 0.421875 1.921875 -0.093750
v 0.421875 0.078125 -0.093750
v 0.500000 2.000000 0.000000
v 0.500000 0.000000 0.000000
v -0.421875 1.921875 -0.093750
v -0.421875 0.078125 -0.093750
v -0.500000 2.000000 0.000000
v -0.500000 0.000000 0.000000
v 0.500000 2.000000 -0.093750
v 0.500000 0.000000 -0.093750
v -0.500000 2.000000 -0.093750
v -0.500000 0.000000 -0.093750
v 0.382812 1.882812 -0.054688
v 0.367188 0.132812 -0.070312
v -0.382812 1.882812 -0.054688
v -0.367188 0.132812 -0.070312
v 0.382812 0.914062 -0.054688
v -0.382812 0.914062 -0.054688
v -0.421875 1.921875 -0.054688
v 0.421875 1.921875 -0.054688
v 0.367188 0.820312 -0.070312
v -0.367188 0.820312 -0.070312
v -0.382812 1.882812 -0.015625
v 0.382812 1.882812 -0.015625
v 0.382812 0.914062 -0.015625
v -0.382812 0.914062 -0.015625
v 0.421875 0.875000 -0.054688
v 0.421875 0.078125 -0.054688
v -0.421875 0.078125 -0.054688
v -0.421875 0.875000 -0.054688
v 0.382812 0.835938 -0.054688
v 0.382812 0.117187 -0.054688
v -0.382812 0.117187 -0.054688
v -0.382812 0.835938 -0.054688
vt 0.640625 0.500000
vt 0.687500 0.500000
vt 0.687500 0.000000
vt 0.640625 0.000000
vt 0.460938 0.960938
vt 0.460938 0.960938
vt 0.460938 0.437500
vt 0.460938 0.039062
vt 0.460938 0.039062
vt 0.500000 1.000000
vt 0.546875 1.000000
vt 0.546875 0.000000
vt 0.500000 0.000000
vt 0.640625 0.000000
vt 0.593750 0.000000
vt 0.593750 0.500000
vt 0.640625 0.500000
vt 0.593750 0.000000
vt 0.546875 0.000000
vt 0.546875 1.000000
vt 0.593750 1.000000
vt 0.500000 0.000000
vt 0.500000 1.000000
vt 0.000000 1.000000
vt 0.039062 0.960938
vt 0.039062 0.039062
vt 0.000000 0.000000
vt 1.000000 0.000000
vt 0.980469 0.000000
vt 0.980469 0.382812
vt 1.000000 0.382812
vt 0.039062 0.039062
vt 0.039062 0.437500
vt 0.039062 0.960938
vt 0.066406 0.066406
vt 0.433594 0.066406
vt 0.433594 0.410156
vt 0.066406 0.410156
vt 0.441406 0.941406
vt 0.058594 0.941406
vt 0.441406 0.457031
vt 0.058594 0.457031
vt 0.058594 0.457031
vt 0.441406 0.457031
vt 0.441406 0.941406
vt 0.058594 0.941406
vt 0.941406 0.484375
vt 0.960938 0.484375
vt 0.960938 0.000000
vt 0.941406 0.000000
vt 0.921875 0.484375
vt 0.941406 0.484375
vt 0.941406 0.000000
vt 0.921875 0.000000
vt 0.980469 0.000000
vt 0.960938 0.000000
vt 0.960938 0.382812
vt 0.980469 0.382812
vt 0.441406 0.058594
vt 0.441406 0.417969
vt 0.058594 0.058594
vt 0.058594 0.417969
vt 0.640625 0.500000
vt 0.640625 0.000000
vt 0.460938 0.960938
vt 0.460938 0.039062
vt 0.460938 0.039062
vt 0.460938 0.437500
vt 0.460938 0.960938
vt 0.546875 0.000000
vt 0.546875 1.000000
vt 0.640625 0.000000
vt 0.640625 0.500000
vt 0.593750 0.000000
vt 0.593750 1.000000
vt 0.500000 1.000000
vt 0.500000 0.000000
vt 0.039062 0.960938
vt 0.000000 1.000000
vt 0.039062 0.039062
vt 0.000000 0.000000
vt 1.000000 0.000000
vt 1.000000 0.382812
vt 0.980469 0.382812
vt 0.980469 0.000000
vt 0.039062 0.960938
vt 0.039062 0.437500
vt 0.039062 0.039062
vt 0.066406 0.066406
vt 0.066406 0.410156
vt 0.433594 0.410156
vt 0.433594 0.066406
vt 0.441406 0.941406
vt 0.058594 0.941406
vt 0.441406 0.457031
vt 0.058594 0.457031
vt 0.058594 0.457031
vt 0.058594 0.941406
vt 0.441406 0.941406
vt 0.441406 0.457031
vt 0.941406 0.484375
vt 0.941406 0.000000
vt 0.960938 0.000000
vt 0.960938 0.484375
vt 0.921875 0.484375
vt 0.921875 0.000000
vt 0.941406 0.000000
vt 0.941406 0.484375
vt 0.980469 0.000000
vt 0.980469 0.382812
vt 0.960938 0.382812
vt 0.960938 0.000000
vt 0.441406 0.058594
vt 0.441406 0.417969
vt 0.058594 0.058594
vt 0.058594 0.417969
vn 0.0000 -1.0000 0.0000
vn -1.0000 0.0000 0.0000
vn 0.0000 1.0000 0.0000
vn 1.0000 0.0000 0.0000
vn 0.0000 0.0000 1.0000
vn 0.7071 0.0000 0.7071
vn 0.0000 -0.7071 0.7071
vn -0.7071 0.0000 0.7071
vn 0.0000 0.7071 0.7071
vn 0.0000 0.0000 -1.0000
vn 0.7071 0.0000 -0.7071
vn 0.0000 -0.7071 -0.7071
vn -0.7071 0.0000 -0.7071
vn 0.0000 0.7071 -0.7071
usemtl None
s off
f 8/1/1 38/2/1 34/3/1 6/4/1
f 1/5/2 16/6/2 23/7/2 24/8/2 2/9/2
f 38/10/2 8/11/2 7/12/2 37/13/2
f 5/14/3 33/15/3 37/16/3 7/17/3
f 6/18/4 34/19/4 33/20/4 5/21/4
f 2/9/5 6/22/5 5/23/5 1/5/5
f 1/5/5 5/23/5 7/24/5 3/25/5
f 4/26/5 8/27/5 6/22/5 2/9/5
f 3/25/5 7/24/5 8/27/5 4/26/5
f 13/28/3 21/29/3 22/30/3 14/31/3
f 4/26/4 25/32/4 26/33/4 15/34/4 3/25/4
f 3/25/1 15/34/1 16/6/1 1/5/1
f 2/9/3 24/8/3 25/32/3 4/26/3
f 12/35/5 10/36/5 17/37/5 18/38/5
f 9/39/5 16/6/5 15/34/5 11/40/5
f 13/41/5 23/7/5 16/6/5 9/39/5
f 11/40/5 15/34/5 26/33/5 14/42/5
f 22/43/5 21/44/5 20/45/5 19/46/5
f 9/47/2 20/48/2 21/49/2 13/50/2
f 14/51/4 22/52/4 19/53/4 11/54/4
f 11/55/1 19/56/1 20/57/1 9/58/1
f 28/59/5 24/8/5 23/7/5 27/60/5
f 29/61/5 25/32/5 24/8/5 28/59/5
f 30/62/5 26/33/5 25/32/5 29/61/5
f 10/36/6 28/59/6 27/60/6 17/37/6
f 12/35/7 29/61/7 28/59/7 10/36/7
f 18/38/8 30/62/8 29/61/8 12/35/8
f 17/37/9 27/60/9 30/62/9 18/38/9
f 27/60/5 23/7/5 13/41/5 14/42/5 26/33/5 30/62/5
f 42/63/1 40/64/1 34/3/1 38/2/1
f 31/65/2 32/66/2 58/67/2 57/68/2 50/69/2
f 38/10/2 37/13/2 41/70/2 42/71/2
f 39/72/3 41/73/3 37/16/3 33/15/3
f 40/74/4 39/75/4 33/20/4 34/19/4
f 32/66/10 31/65/10 39/76/10 40/77/10
f 31/65/10 35/78/10 41/79/10 39/76/10
f 36/80/10 32/66/10 40/77/10 42/81/10
f 35/78/10 36/80/10 42/81/10 41/79/10
f 47/82/3 48/83/3 56/84/3 55/85/3
f 36/80/4 35/78/4 49/86/4 60/87/4 59/88/4
f 35/78/1 31/65/1 50/69/1 49/86/1
f 32/66/3 36/80/3 59/88/3 58/67/3
f 46/89/10 52/90/10 51/91/10 44/92/10
f 43/93/10 45/94/10 49/86/10 50/69/10
f 47/95/10 43/93/10 50/69/10 57/68/10
f 45/94/10 48/96/10 60/87/10 49/86/10
f 56/97/10 53/98/10 54/99/10 55/100/10
f 43/101/2 47/102/2 55/103/2 54/104/2
f 48/105/4 45/106/4 53/107/4 56/108/4
f 45/109/1 43/110/1 54/111/1 53/112/1
f 62/113/10 61/114/10 57/68/10 58/67/10
f 63/115/10 62/113/10 58/67/10 59/88/10
f 64/116/10 63/115/10 59/88/10 60/87/10
f 44/92/11 51/91/11 61/114/11 62/113/11
f 46/89/12 44/92/12 62/113/12 63/115/12
f 52/90/13 46/89/13 63/115/13 64/116/13
f 51/91/14 52/90/14 64/116/14 61/114/14
f 61/114/10 64/116/10 60/87/10 48/96/10 47/95/10 57/68/10
