# Blender v2.80 (sub 44) OBJ File: 'door_supermarket.blend'
# www.blender.org
mtllib door_supermarket.mtl
o Cube_Cube.001
v -0.550000 0.050000 -0.100000
v -1.450000 0.050000 -0.100000
v -1.500000 0.000000 -0.100000
v -0.550000 0.050000 -0.010000
v -1.450000 0.050000 -0.010000
v -0.450000 0.050000 -0.100000
v 0.450000 0.050000 -0.100000
v 0.500000 0.000000 -0.100000
v -0.500000 0.000000 -0.100000
v -0.450000 0.050000 -0.010000
v 0.450000 0.050000 -0.010000
v -1.500000 0.000000 0.000000
v -0.550000 0.050000 0.100000
v -1.450000 0.050000 0.100000
v -1.500000 0.000000 0.100000
v -0.550000 0.050000 0.000000
v -1.450000 0.050000 0.000000
v -0.550000 0.050000 0.010000
v -1.450000 0.050000 0.010000
v 0.500000 0.000000 0.000000
v -0.450000 0.050000 0.100000
v 0.450000 0.050000 0.100000
v 0.500000 0.000000 0.100000
v -0.500000 0.000000 0.100000
v -0.450000 0.050000 0.000000
v 0.450000 0.050000 0.000000
v -0.450000 0.050000 0.010000
v 0.450000 0.050000 0.010000
v -0.500000 0.000000 0.000000
v -0.550000 1.950000 -0.100000
v -0.550000 1.000000 -0.100000
v -1.450000 1.950000 -0.100000
v -1.450000 1.000000 -0.100000
v -1.500000 1.000000 -0.100000
v -1.500000 2.000000 -0.100000
v -0.550000 1.950000 -0.010000
v -0.550000 1.000000 -0.010000
v -1.450000 1.950000 -0.010000
v -1.450000 1.000000 -0.010000
v -0.450000 1.950000 -0.100000
v -0.450000 1.000000 -0.100000
v 0.450000 1.950000 -0.100000
v 0.450000 1.000000 -0.100000
v 0.500000 1.000000 -0.100000
v 0.500000 2.000000 -0.100000
v -0.500000 2.000000 -0.100000
v -0.500000 1.000000 -0.100000
v -0.450000 1.950000 -0.010000
v -0.450000 1.000000 -0.010000
v 0.450000 1.950000 -0.010000
v 0.450000 1.000000 -0.010000
v -1.500000 2.000000 0.000000
v -1.500000 1.000000 0.000000
v -0.550000 1.950000 0.100000
v -0.550000 1.000000 0.100000
v -1.450000 1.950000 0.100000
v -1.450000 1.000000 0.100000
v -1.500000 1.000000 0.100000
v -1.500000 2.000000 0.100000
v -0.550000 1.950000 0.000000
v -0.550000 1.000000 0.000000
v -1.450000 1.950000 0.000000
v -1.450000 1.000000 0.000000
v -0.550000 1.950000 0.010000
v -0.550000 1.000000 0.010000
v -1.450000 1.950000 0.010000
v -1.450000 1.000000 0.010000
v 0.500000 2.000000 0.000000
v 0.500000 1.000000 0.000000
v -0.450000 1.950000 0.100000
v -0.450000 1.000000 0.100000
v 0.450000 1.950000 0.100000
v 0.450000 1.000000 0.100000
v 0.500000 1.000000 0.100000
v 0.500000 2.000000 0.100000
v -0.500000 2.000000 0.100000
v -0.500000 1.000000 0.100000
v -0.450000 1.950000 0.000000
v -0.450000 1.000000 0.000000
v 0.450000 1.950000 0.000000
v 0.450000 1.000000 0.000000
v -0.450000 1.950000 0.010000
v -0.450000 1.000000 0.010000
v 0.450000 1.950000 0.010000
v 0.450000 1.000000 0.010000
v -0.500000 2.000000 0.000000
vt 0.898438 0.500000
vt 0.898438 0.000000
vt 0.949219 0.000000
vt 0.949219 0.500000
vt 0.792969 0.000000
vt 0.792969 0.500000
vt 0.738281 0.500000
vt 0.738281 0.000000
vt 0.476562 0.500000
vt 0.476562 0.023438
vt 0.500000 0.000000
vt 0.500000 0.500000
vt 0.023438 0.023438
vt 0.000000 0.000000
vt 0.023438 0.500000
vt 0.000000 0.500000
vt 0.843750 0.472656
vt 0.843750 0.000000
vt 0.898438 0.000000
vt 0.898438 0.472656
vt 0.843750 0.500000
vt 0.792969 0.500000
vt 0.792969 0.000000
vt 0.476562 0.023438
vt 0.476562 0.500000
vt 0.023438 0.500000
vt 0.023438 0.023438
vt 0.949219 0.500000
vt 0.949219 0.000000
vt 1.000000 0.000000
vt 1.000000 0.500000
vt 0.898438 0.500000
vt 0.949219 0.500000
vt 0.949219 0.000000
vt 0.898438 0.000000
vt 0.792969 0.000000
vt 0.738281 0.000000
vt 0.738281 0.500000
vt 0.792969 0.500000
vt 0.476562 0.500000
vt 0.500000 0.500000
vt 0.500000 0.000000
vt 0.476562 0.023438
vt 0.023438 0.023438
vt 0.023438 0.500000
vt 0.843750 0.472656
vt 0.898438 0.472656
vt 0.898438 0.000000
vt 0.843750 0.000000
vt 0.792969 0.000000
vt 0.792969 0.500000
vt 0.843750 0.500000
vt 0.476562 0.023438
vt 0.023438 0.023438
vt 0.023438 0.500000
vt 0.476562 0.500000
vt 1.000000 0.000000
vt 0.949219 0.000000
vt 0.949219 0.500000
vt 0.949219 0.000000
vt 0.792969 0.000000
vt 0.792969 0.500000
vt 0.476562 0.500000
vt 0.500000 0.500000
vt 0.500000 0.000000
vt 0.476562 0.023438
vt 0.000000 0.000000
vt 0.023438 0.023438
vt 0.000000 0.500000
vt 0.023438 0.500000
vt 0.843750 0.472656
vt 0.843750 0.000000
vt 0.843750 0.500000
vt 0.476562 0.023438
vt 0.023438 0.023438
vt 0.023438 0.500000
vt 0.476562 0.500000
vt 1.000000 0.500000
vt 1.000000 0.000000
vt 0.949219 0.000000
vt 0.949219 0.500000
vt 0.792969 0.000000
vt 0.792969 0.500000
vt 0.476562 0.500000
vt 0.476562 0.023438
vt 0.500000 0.000000
vt 0.500000 0.500000
vt 0.023438 0.023438
vt 0.023438 0.500000
vt 0.843750 0.472656
vt 0.843750 0.000000
vt 0.843750 0.500000
vt 0.476562 0.023438
vt 0.476562 0.500000
vt 0.023438 0.500000
vt 0.023438 0.023438
vt 1.000000 0.000000
vt 0.898438 0.500000
vt 0.949219 0.500000
vt 0.738281 0.500000
vt 0.792969 0.500000
vt 0.500000 0.000000
vt 0.476562 0.023438
vt 0.000000 0.000000
vt 0.023438 0.023438
vt 0.843750 0.472656
vt 0.898438 0.472656
vt 0.898438 0.000000
vt 0.843750 0.000000
vt 0.792969 0.000000
vt 0.476562 0.023438
vt 0.023438 0.023438
vt 0.949219 0.500000
vt 1.000000 0.500000
vt 1.000000 0.000000
vt 0.949219 0.000000
vt 0.898438 0.500000
vt 0.949219 0.500000
vt 0.792969 0.500000
vt 0.738281 0.500000
vt 0.476562 0.023438
vt 0.500000 0.000000
vt 0.023438 0.023438
vt 0.843750 0.472656
vt 0.843750 0.000000
vt 0.898438 0.000000
vt 0.898438 0.472656
vt 0.792969 0.000000
vt 0.476562 0.023438
vt 0.023438 0.023438
vt 0.949219 0.000000
vt 1.000000 0.000000
vt 0.949219 0.500000
vt 0.792969 0.500000
vt 0.476562 0.023438
vt 0.500000 0.000000
vt 0.023438 0.023438
vt 0.000000 0.000000
vt 0.843750 0.472656
vt 0.843750 0.000000
vt 0.476562 0.023438
vt 0.023438 0.023438
vt 1.000000 0.000000
vt 1.000000 0.500000
vt 0.949219 0.500000
vt 0.792969 0.500000
vt 0.500000 0.000000
vt 0.476562 0.023438
vt 0.023438 0.023438
vt 0.843750 0.472656
vt 0.843750 0.000000
vt 0.476562 0.023438
vt 0.023438 0.023438
vt 1.000000 0.000000
vn -1.0000 0.0000 0.0000
vn 0.0000 0.0000 -1.0000
vn 0.0000 1.0000 0.0000
vn 1.0000 0.0000 0.0000
vn 0.0000 -1.0000 0.0000
vn 0.0000 0.0000 1.0000
usemtl Material
s off
f 12/1/1 53/2/1 34/3/1 3/4/1
f 31/5/1 1/6/1 16/7/1 61/8/1
f 33/9/2 2/10/2 3/11/2 34/12/2
f 2/10/2 1/13/2 9/14/2 3/11/2
f 1/13/2 31/15/2 47/16/2 9/14/2
f 1/17/3 2/18/3 17/19/3 16/20/3
f 2/18/4 33/21/4 63/22/4 17/23/4
f 5/24/2 39/25/2 37/26/2 4/27/2
f 29/28/5 12/29/5 3/30/5 9/31/5
f 20/32/4 8/33/4 44/34/4 69/35/4
f 41/36/4 79/37/4 25/38/4 6/39/4
f 43/40/2 44/41/2 8/42/2 7/43/2
f 7/43/2 8/42/2 9/14/2 6/44/2
f 6/44/2 9/14/2 47/16/2 41/45/2
f 6/46/3 25/47/3 26/48/3 7/49/3
f 7/49/1 26/50/1 81/51/1 43/52/1
f 11/53/2 10/54/2 49/55/2 51/56/2
f 29/28/5 9/31/5 8/57/5 20/58/5
f 12/1/1 15/59/1 58/60/1 53/2/1
f 55/61/1 61/8/1 16/7/1 13/62/1
f 57/63/6 58/64/6 15/65/6 14/66/6
f 14/66/6 15/65/6 24/67/6 13/68/6
f 13/68/6 24/67/6 77/69/6 55/70/6
f 13/71/3 16/20/3 17/19/3 14/72/3
f 14/72/4 17/23/4 63/22/4 57/73/4
f 19/74/6 18/75/6 65/76/6 67/77/6
f 29/28/5 24/78/5 15/79/5 12/29/5
f 20/32/4 69/35/4 74/80/4 23/81/4
f 71/82/4 21/83/4 25/38/4 79/37/4
f 73/84/6 22/85/6 23/86/6 74/87/6
f 22/85/6 21/88/6 24/67/6 23/86/6
f 21/88/6 71/89/6 77/69/6 24/67/6
f 21/90/3 22/91/3 26/48/3 25/47/3
f 22/91/1 73/92/1 81/51/1 26/50/1
f 28/93/6 85/94/6 83/95/6 27/96/6
f 29/28/5 20/58/5 23/97/5 24/78/5
f 52/98/1 35/99/1 34/3/1 53/2/1
f 31/5/1 61/8/1 60/100/1 30/101/1
f 33/9/2 34/12/2 35/102/2 32/103/2
f 32/103/2 35/102/2 46/104/2 30/105/2
f 30/105/2 46/104/2 47/16/2 31/15/2
f 30/106/5 60/107/5 62/108/5 32/109/5
f 32/109/4 62/110/4 63/22/4 33/21/4
f 38/111/2 36/112/2 37/26/2 39/25/2
f 86/113/3 46/114/3 35/115/3 52/116/3
f 68/117/4 69/35/4 44/34/4 45/118/4
f 41/36/4 40/119/4 78/120/4 79/37/4
f 43/40/2 42/121/2 45/122/2 44/41/2
f 42/121/2 40/123/2 46/104/2 45/122/2
f 40/123/2 41/45/2 47/16/2 46/104/2
f 40/124/5 42/125/5 80/126/5 78/127/5
f 42/125/1 43/52/1 81/51/1 80/128/1
f 50/129/2 51/56/2 49/55/2 48/130/2
f 86/113/3 68/131/3 45/132/3 46/114/3
f 52/98/1 53/2/1 58/60/1 59/133/1
f 55/61/1 54/134/1 60/100/1 61/8/1
f 57/63/6 56/135/6 59/136/6 58/64/6
f 56/135/6 54/137/6 76/138/6 59/136/6
f 54/137/6 55/70/6 77/69/6 76/138/6
f 54/139/5 56/140/5 62/108/5 60/107/5
f 56/140/4 57/73/4 63/22/4 62/110/4
f 66/141/6 67/77/6 65/76/6 64/142/6
f 86/113/3 52/116/3 59/143/3 76/144/3
f 68/117/4 75/145/4 74/80/4 69/35/4
f 71/82/4 79/37/4 78/120/4 70/146/4
f 73/84/6 74/87/6 75/147/6 72/148/6
f 72/148/6 75/147/6 76/138/6 70/149/6
f 70/149/6 76/138/6 77/69/6 71/89/6
f 70/150/5 78/127/5 80/126/5 72/151/5
f 72/151/1 80/128/1 81/51/1 73/92/1
f 84/152/6 82/153/6 83/95/6 85/94/6
f 86/113/3 76/144/3 75/154/3 68/131/3
