# Blender v2.80 (sub 45) OBJ File: 'street_light.blend'
# www.blender.org
mtllib street_light.mtl
o Cube
v 0.197444 0.000000 0.443000
v -0.177556 0.000000 0.443000
v 0.195021 4.000000 -0.494499
v 0.197444 0.000000 0.068000
v -0.175132 4.000000 -0.494499
v -0.177556 0.000000 0.068000
v -0.129248 3.942861 -0.471336
v 0.147790 3.942861 -0.471336
v -0.117634 3.852789 0.068001
v -0.177555 3.945299 0.068001
v 0.197445 3.945299 0.068001
v 0.137364 3.852789 0.068001
v 0.197444 0.250000 0.443000
v -0.177556 0.250000 0.068000
v -0.177556 0.250000 0.443000
v 0.197444 0.250000 0.068000
v 0.110795 0.500000 0.215726
v 0.110795 0.500000 0.295275
v 0.197444 0.429289 0.308533
v 0.197444 0.429289 0.202467
v 0.049719 0.500000 0.356351
v -0.029830 0.500000 0.356351
v -0.043089 0.429289 0.443000
v 0.062977 0.429289 0.443000
v -0.090906 0.500000 0.295275
v -0.090906 0.500000 0.215726
v -0.177556 0.429289 0.202467
v -0.177556 0.429289 0.308533
v -0.029830 0.500000 0.154650
v 0.049719 0.500000 0.154650
v 0.062977 0.429289 0.068000
v -0.043089 0.429289 0.068000
v 0.112342 3.802014 0.298937
v 0.112342 3.787940 0.219387
v -0.089359 3.787940 0.219387
v -0.089359 3.802014 0.298937
v 0.051266 3.765777 0.158312
v -0.028283 3.765777 0.158312
v -0.044384 3.857840 0.327943
v 0.063713 3.857472 0.329037
v -0.029830 3.813433 0.356351
v 0.049719 3.814959 0.356351
vt 0.099609 0.894531
vt 0.093750 0.906250
vt 0.093750 0.814453
vt 0.099609 0.826172
vt 0.000000 0.812500
vt 0.093750 0.812500
vt 0.093750 0.906250
vt 0.000000 0.906250
vt 0.210938 0.000000
vt 0.210938 0.046875
vt 0.187500 0.082031
vt 0.164062 0.082031
vt 0.140625 0.046875
vt 0.140625 0.000000
vt 0.029297 0.714844
vt 0.041016 0.708984
vt 0.070312 0.720703
vt 0.070312 0.738281
vt 0.093750 0.082031
vt 0.099609 0.093750
vt 0.087891 0.093750
vt 0.070312 0.082031
vt 0.070312 0.046875
vt 0.234375 0.892578
vt 0.234375 0.906250
vt 0.000000 1.000000
vt 0.000000 0.906250
vt 0.140625 0.906250
vt 0.140625 1.000000
vt 0.234375 0.812500
vt 0.234375 0.828125
vt 0.281250 0.000000
vt 0.281250 0.046875
vt 0.257812 0.082031
vt 0.234375 0.082031
vt 0.210938 0.046875
vt 0.210938 0.000000
vt 0.099609 0.708984
vt 0.087891 0.708984
vt 0.070312 0.000000
vt 0.070312 0.046875
vt 0.046875 0.082031
vt 0.023438 0.082031
vt 0.000000 0.046875
vt 0.000000 0.000000
vt 0.041016 0.093750
vt 0.052734 0.093750
vt 0.052734 0.708984
vt 0.140625 0.082031
vt 0.123047 0.093750
vt 0.111328 0.093750
vt 0.117188 0.082031
vt 0.070312 0.082031
vt 0.070312 0.000000
vt 0.117188 0.714844
vt 0.123047 0.714844
vt 0.117188 0.726562
vt 0.029297 0.093750
vt 0.181641 0.093750
vt 0.169922 0.093750
vt 0.251953 0.093750
vt 0.240234 0.093750
vt 0.070312 0.738281
vt 0.070312 0.720703
vt 0.240234 0.708984
vt 0.251953 0.708984
vt 0.017578 0.093750
vt 0.000000 0.082031
vt 0.023438 0.726562
vt 0.269531 0.720703
vt 0.222656 0.720703
vt 0.207031 0.966797
vt 0.207031 0.939453
vt 0.017578 0.714844
vt 0.181641 0.714844
vt 0.169922 0.714844
vt 0.164062 0.726562
vt 0.187500 0.726562
vn 0.0000 -0.3757 -0.9267
vn -0.0000 -1.0000 -0.0000
vn 0.0000 -0.0000 1.0000
vn 0.8748 -0.4844 -0.0117
vn -0.5790 0.5741 -0.5790
vn -0.8094 -0.5831 -0.0699
vn 0.0000 0.9953 0.0968
vn 0.8053 -0.5885 -0.0715
vn 0.0000 -0.9863 -0.1647
vn -0.0000 0.0000 -1.0000
vn -0.7070 0.0011 -0.7072
vn 1.0000 -0.0000 -0.0000
vn 0.7071 0.0005 -0.7071
vn -0.5790 0.5741 0.5790
vn 0.5790 0.5741 -0.5790
vn -1.0000 0.0000 0.0000
vn -0.7009 0.0013 0.7132
vn 0.6322 0.7748 0.0000
vn 0.0000 0.7748 0.6322
vn -0.6322 0.7748 0.0000
vn 0.0000 0.7748 -0.6322
vn -0.8720 -0.4896 -0.0009
vn -0.5378 -0.8067 -0.2451
vn -1.0000 0.0005 -0.0000
vn 0.0000 0.0011 -1.0000
vn 1.0000 -0.0005 0.0000
vn 0.5790 0.5741 0.5790
vn 0.7620 0.3858 0.5202
vn -0.7772 0.3569 0.5182
vn 0.5435 -0.8004 -0.2530
vn 0.0000 -0.7201 -0.6938
vn 0.0000 0.9478 0.3189
vn 0.6918 0.0010 0.7221
vn -0.0082 0.5396 0.8419
usemtl Material
s off
f 7/1/1 5/2/1 3/3/1 8/4/1
f 4/5/2 1/6/2 2/7/2 6/8/2
f 1/9/3 13/10/3 24/11/3 23/12/3 15/13/3 2/14/3
f 33/15/4 34/16/4 12/17/4 11/18/4
f 27/19/5 26/20/5 29/21/5 32/22/5 14/23/5
f 5/2/6 7/1/6 9/24/6 10/25/6
f 3/26/7 5/27/7 10/28/7 11/29/7
f 8/4/8 3/3/8 11/30/8 12/31/8
f 7/1/9 8/4/9 12/31/9 9/24/9
f 6/32/10 14/33/10 32/34/10 31/35/10 16/36/10 4/37/10
f 26/20/11 35/38/11 38/39/11 29/21/11
f 4/40/12 16/41/12 20/42/12 19/43/12 13/44/12 1/45/12
f 34/16/13 17/46/13 30/47/13 37/48/13
f 23/49/14 22/50/14 25/51/14 28/52/14 15/13/14
f 31/53/15 30/47/15 17/46/15 20/42/15 16/41/15
f 2/14/16 15/13/16 28/52/16 27/19/16 14/23/16 6/54/16
f 36/55/17 25/51/17 22/50/17 41/56/17 39/57/17
f 17/46/18 18/58/18 19/43/18 20/42/18
f 21/59/19 22/60/19 23/12/19 24/11/19
f 25/51/20 26/20/20 27/19/20 28/52/20
f 29/61/21 30/62/21 31/35/21 32/34/21
f 35/38/22 36/55/22 10/63/22 9/64/22
f 38/39/23 35/38/23 9/64/23
f 25/51/24 36/55/24 35/38/24 26/20/24
f 37/65/25 30/62/25 29/61/25 38/66/25
f 17/46/26 34/16/26 33/15/26 18/58/26
f 19/43/27 18/58/27 21/67/27 24/68/27 13/44/27
f 11/18/28 40/69/28 33/15/28
f 36/55/29 39/57/29 10/63/29
f 12/17/30 34/16/30 37/48/30
f 38/66/31 9/70/31 12/71/31 37/65/31
f 40/72/32 11/29/32 10/28/32 39/73/32
f 40/69/33 42/74/33 21/67/33 18/58/33 33/15/33
f 42/75/3 41/76/3 22/60/3 21/59/3
f 39/77/34 41/76/34 42/75/34 40/78/34
