<?xml version="1.0" encoding="utf-8"?>
<!-- Generator: Adobe Illustrator 21.0.2, SVG Export Plug-In . SVG Version: 6.00 Build 0)  -->
<svg version="1.1" id="Слой_1" xmlns="http://www.w3.org/2000/svg" xmlns:xlink="http://www.w3.org/1999/xlink" x="0px" y="0px"
	 viewBox="0 0 256 256" style="enable-background:new 0 0 256 256;" xml:space="preserve">
<style type="text/css">
	.st0{fill:url(#SVGID_1_);}
	.st1{fill:#F4CD27;}
</style>
<g>
	<radialGradient id="SVGID_1_" cx="129.6831" cy="123.4243" r="104.6215" gradientUnits="userSpaceOnUse">
		<stop  offset="0" style="stop-color:#FFFFFF;stop-opacity:0"/>
		<stop  offset="1" style="stop-color:#000000;stop-opacity:0.2"/>
	</radialGradient>
	<path class="st0" d="M193.7,225.5c-0.5,0-1.1-0.1-1.6-0.4L136,195.5c-1.9-1-4.1-1.6-6.3-1.6c-2.2,0-4.4,0.5-6.3,1.6l-56.1,29.5
		c-0.5,0.3-1.1,0.4-1.6,0.4c-1,0-2-0.5-2.7-1.3c-0.5-0.6-1-1.5-0.7-2.8l10.7-62.5c0.8-4.4-0.7-8.8-3.9-11.9l-45.4-44.3
		c-1.4-1.4-1.1-3-0.9-3.6c0.2-0.6,0.9-2.1,2.8-2.4l62.8-9.1c4.4-0.6,8.2-3.4,10.2-7.4l28.1-56.9c0.9-1.8,2.5-2,3.1-2s2.3,0.2,3.1,2
		l28.1,56.9c2,4,5.8,6.7,10.2,7.4l62.8,9.1c1.9,0.3,2.6,1.8,2.8,2.4s0.5,2.2-0.9,3.6l-45.4,44.3c-3.2,3.1-4.6,7.6-3.9,11.9
		l10.7,62.5c0.2,1.3-0.3,2.3-0.7,2.8C195.7,225,194.7,225.5,193.7,225.5z"/>
	<g>
		<path class="st1" d="M129.7,28.3l26.7,54.1c2.7,5.5,7.9,9.2,13.9,10.1l59.7,8.7l-43.2,42.1c-4.4,4.3-6.3,10.4-5.3,16.4l10.2,59.5
			l-53.4-28.1c-2.6-1.4-5.6-2.1-8.6-2.1s-6,0.7-8.6,2.1l-53.4,28.1l10.2-59.5c1-6-1-12.1-5.3-16.4l-43.2-42.1L89,92.5
			c6-0.9,11.2-4.7,13.9-10.1L129.7,28.3 M129.7,16.4c-3,0-6.1,1.6-7.6,4.7L94,78c-1.2,2.5-3.6,4.2-6.4,4.6l-62.8,9.1
			c-7,1-9.8,9.6-4.7,14.5l45.4,44.3c2,2,2.9,4.8,2.4,7.5l-10.7,62.5c-0.9,5.5,3.4,10,8.4,10c1.3,0,2.7-0.3,4-1l56.1-29.5
			c1.2-0.7,2.6-1,4-1s2.7,0.3,4,1l56.1,29.5c1.3,0.7,2.6,1,4,1c5,0,9.3-4.5,8.4-10L191.4,158c-0.5-2.8,0.4-5.6,2.4-7.5l45.4-44.3
			c5-4.9,2.3-13.5-4.7-14.5l-62.8-9.1c-2.8-0.4-5.2-2.1-6.4-4.6l-28.1-56.9C135.7,17.9,132.7,16.4,129.7,16.4L129.7,16.4z"/>
	</g>
</g>
</svg>
