<?xml version="1.0" encoding="utf-8"?>
<!-- Generator: Adobe Illustrator 21.0.2, SVG Export Plug-In . SVG Version: 6.00 Build 0)  -->
<svg version="1.1" id="Слой_1" xmlns="http://www.w3.org/2000/svg" xmlns:xlink="http://www.w3.org/1999/xlink" x="0px" y="0px"
	 viewBox="0 0 256 256" style="enable-background:new 0 0 256 256;" xml:space="preserve">
<style type="text/css">
	.st0{opacity:0.5;fill:#C5C5C5;}
	.st1{fill:#E5CA45;}
	.st2{opacity:0.5;fill:url(#SVGID_1_);}
	.st3{fill:#CCB64A;}
	.st4{opacity:0.5;fill:#EDE0AB;}
</style>
<circle class="st0" cx="128" cy="128" r="110.3"/>
<circle class="st1" cx="128" cy="128" r="128"/>
<radialGradient id="SVGID_1_" cx="128" cy="128" r="110.25" gradientUnits="userSpaceOnUse">
	<stop  offset="0.6634" style="stop-color:#F7F7F7"/>
	<stop  offset="0.8045" style="stop-color:#F5F5F5"/>
	<stop  offset="0.8553" style="stop-color:#EEEEEE"/>
	<stop  offset="0.8915" style="stop-color:#E3E3E3"/>
	<stop  offset="0.9208" style="stop-color:#D2D2D2"/>
	<stop  offset="0.9459" style="stop-color:#BCBCBC"/>
	<stop  offset="0.9681" style="stop-color:#A0A0A0"/>
	<stop  offset="0.9877" style="stop-color:#818181"/>
	<stop  offset="1" style="stop-color:#696969"/>
</radialGradient>
<circle class="st2" cx="128" cy="128" r="110.3"/>
<g>
	<path class="st3" d="M128,81c25.9,0,47,21.1,47,47s-21.1,47-47,47s-47-21.1-47-47S102.1,81,128,81 M128,71c-31.5,0-57,25.5-57,57
		s25.5,57,57,57s57-25.5,57-57S159.5,71,128,71L128,71z"/>
</g>
<g>
	<path class="st3" d="M94,71c-2.8,0-5,2.2-5,5v104c0,2.8,2.2,5,5,5s5-2.2,5-5V76C99,73.2,96.8,71,94,71L94,71z"/>
</g>
<g>
	<path class="st3" d="M162,71c-2.8,0-5,2.2-5,5v104c0,2.8,2.2,5,5,5s5-2.2,5-5V76C167,73.2,164.8,71,162,71L162,71z"/>
</g>
<path class="st4" d="M128,128l-88.3,92.6c-50.8-48.5-52.8-130.1-4.3-181s130.1-52.8,181-4.3L128,128z"/>
</svg>
