<?xml version="1.0" encoding="utf-8"?>
<!-- Generator: Adobe Illustrator 21.0.2, SVG Export Plug-In . SVG Version: 6.00 Build 0)  -->
<svg version="1.1" id="Слой_1" xmlns="http://www.w3.org/2000/svg" xmlns:xlink="http://www.w3.org/1999/xlink" x="0px" y="0px"
	 viewBox="0 0 256 256" style="enable-background:new 0 0 256 256;" xml:space="preserve">
<style type="text/css">
	.st0{fill:#C7B299;}
</style>
<g>
	<path class="st0" d="M136.5,17l27.9,56.5c1.2,2.5,3.6,4.2,6.4,4.6l62.3,9.1c6.9,1,9.7,9.5,4.7,14.4l-45.1,43.9
		c-2,1.9-2.9,4.7-2.4,7.5l10.6,62.1c1.2,6.9-6.1,12.2-12.2,8.9l-55.7-29.3c-2.5-1.3-5.4-1.3-7.9,0l-55.7,29.3
		c-6.2,3.3-13.4-2-12.2-8.9L67.7,153c0.5-2.7-0.4-5.5-2.4-7.5l-45.1-43.9c-5-4.9-2.2-13.4,4.7-14.4l62.3-9.1
		c2.7-0.4,5.1-2.1,6.4-4.6L121.4,17C124.5,10.8,133.4,10.8,136.5,17z"/>
</g>
</svg>
