<?xml version="1.0" encoding="utf-8"?>
<!-- Generator: Adobe Illustrator 21.0.2, SVG Export Plug-In . SVG Version: 6.00 Build 0)  -->
<svg version="1.1" id="Слой_1" xmlns="http://www.w3.org/2000/svg" xmlns:xlink="http://www.w3.org/1999/xlink" x="0px" y="0px"
	 viewBox="0 0 256 256" style="enable-background:new 0 0 256 256;" xml:space="preserve">
<style type="text/css">
	.st0{fill:url(#SVGID_1_);}
	.st1{fill:#CCCCCC;}
	.st2{fill:url(#SVGID_2_);}
	.st3{fill:#E5E1DF;}
	.st4{fill:#A88451;}
	.st5{fill:#CE9557;}
	.st6{fill:#C97B2D;}
</style>
<linearGradient id="SVGID_1_" gradientUnits="userSpaceOnUse" x1="130.6667" y1="176.6667" x2="130.6667" y2="75">
	<stop  offset="0" style="stop-color:#F2F2F2"/>
	<stop  offset="1" style="stop-color:#CCCCCC"/>
</linearGradient>
<path class="st0" d="M198.3,176.7H63c-6.6,0-12-5.4-12-12V87c0-6.6,5.4-12,12-12h135.3c6.6,0,12,5.4,12,12v77.7
	C210.3,171.3,204.9,176.7,198.3,176.7z"/>
<path class="st1" d="M65.6,64.5v-12c0-2.5,2-4.5,4.5-4.5h12c2.5,0,4.5,2,4.5,4.5v12H65.6z"/>
<linearGradient id="SVGID_2_" gradientUnits="userSpaceOnUse" x1="100" y1="48.0211" x2="100" y2="64.4789">
	<stop  offset="0" style="stop-color:#F2F2F2"/>
	<stop  offset="0.4779" style="stop-color:#F0F0F0"/>
	<stop  offset="0.7024" style="stop-color:#E8E8E8"/>
	<stop  offset="0.8734" style="stop-color:#DCDCDC"/>
	<stop  offset="1" style="stop-color:#CCCCCC"/>
</linearGradient>
<path class="st2" d="M89.5,64.5v-12c0-2.5,2-4.5,4.5-4.5h12c2.5,0,4.5,2,4.5,4.5v12H89.5z"/>
<path class="st3" d="M72.1,22.8c0,0,2.5-1.9,2.6-1.9s1.3,0.2,1.3,0.2s-1.2,2.1-1.3,2.3C74.5,23.7,72.1,23.3,72.1,22.8z"/>
<path class="st3" d="M75.1,21c0.4-1.2,2.4-2.3,2.2,2.3l-0.1,7.8h-0.4l0.1-7.8c-0.1-5-1.6-2.2-1.6-2.2L75.1,21z"/>
<polygon class="st3" points="76.3,32.5 77.2,32.9 77.9,32.5 77.7,31.1 76.5,31.1 "/>
<path class="st4" d="M76,32.9l-0.2-1.1c-0.1-0.5-0.1-1-0.1-1.4l-0.1-1.9l-0.1,1.5c0,0.2,0,0.3-0.1,0.5l-0.2,0.9l-0.5,0
	c-0.5,0-0.9,0.5-0.9,1.1l0.1,0.8l0.1,0l0.2-0.4c0.3-0.5,1-0.6,1.4-0.2l0.2,0.3H76z"/>
<path class="st4" d="M71.7,32.2l-0.2-1.1c-0.1-0.5-0.1-1-0.1-1.4L71.2,28l-0.1,1.3c0,0.2,0,0.3-0.1,0.5l-0.2,0.9l-0.5,0
	c-0.5,0-0.9,0.5-0.9,1.1l0.1,0.8l0.1,0l0.2-0.4c0.3-0.5,1-0.6,1.4-0.2l0.2,0.3H71.7z"/>
<path class="st5" d="M71.3,28l4.4,0.4l-0.1,1.5l-0.1,0.5l-0.2,0.9l-4.4-0.7l0.1-0.8c0-0.3,0.1-0.5,0.1-0.9L71.3,28z"/>
<polygon class="st6" points="75.3,31.3 74.7,31.4 74.6,31.4 74.5,31.5 74.3,31.5 74.2,31.6 74.1,31.8 74,31.9 74,32 73.9,32.2 
	73.9,32.3 69.6,31.5 69.6,31.4 69.6,31.2 69.7,31.1 69.8,31 69.9,30.9 69.9,30.9 70,30.8 70.1,30.8 70.2,30.7 70.4,30.7 70.6,30.7 
	70.9,30.7 "/>
</svg>
