<?xml version="1.0" encoding="utf-8"?>
<!-- Generator: Adobe Illustrator 21.0.2, SVG Export Plug-In . SVG Version: 6.00 Build 0)  -->
<svg version="1.1" id="Слой_1" xmlns="http://www.w3.org/2000/svg" xmlns:xlink="http://www.w3.org/1999/xlink" x="0px" y="0px"
	 viewBox="0 0 256 256" style="enable-background:new 0 0 256 256;" xml:space="preserve">
<style type="text/css">
	.st0{fill:#E6E6E6;stroke:#E6E6E6;stroke-miterlimit:10;}
	.st1{fill:#E6E6E6;}
	.st2{fill:#999999;}
</style>
<path class="st0" d="M198.5,163h-141c-1.1,0-2-0.9-2-2V95c0-1.1,0.9-2,2-2h141c1.1,0,2,0.9,2,2v66C200.5,162.1,199.6,163,198.5,163z
	"/>
<g>
	<path class="st1" d="M59.3,161.5c-1.2,0-2.3-1-2.3-2.3V96.8c0-1.2,1-2.3,2.3-2.3h137.5c1.2,0,2.3,1,2.3,2.3v62.5
		c0,1.2-1,2.3-2.3,2.3H59.3z"/>
	<path class="st2" d="M196.8,95c1,0,1.8,0.8,1.8,1.8v62.5c0,1-0.8,1.8-1.8,1.8H59.3c-1,0-1.8-0.8-1.8-1.8V96.8c0-1,0.8-1.8,1.8-1.8
		H196.8 M196.8,94H59.3c-1.5,0-2.8,1.2-2.8,2.8v62.5c0,1.5,1.2,2.8,2.8,2.8h137.5c1.5,0,2.8-1.2,2.8-2.8V96.8
		C199.5,95.2,198.3,94,196.8,94L196.8,94z"/>
</g>
</svg>
